<mxfile host="app.diagrams.net" agent="Mozilla/5.0 (Windows NT 10.0; Win64; x64) AppleWebKit/537.36 (KHTML, like Gecko) Chrome/129.0.0.0 Safari/537.36" version="24.7.16" pages="3">
  <diagram name="Страница — 1" id="WsmNVoZ1XOKM6wW6esLS">
    <mxGraphModel dx="2049" dy="1114" grid="1" gridSize="10" guides="1" tooltips="1" connect="1" arrows="1" fold="1" page="1" pageScale="1" pageWidth="1654" pageHeight="2336" math="0" shadow="0">
      <root>
        <mxCell id="0" />
        <mxCell id="1" parent="0" />
        <mxCell id="b8SGIurOboEkmsRjIlzD-1" value="начало" style="ellipse;whiteSpace=wrap;html=1;" parent="1" vertex="1">
          <mxGeometry x="354" y="160" width="86" height="50" as="geometry" />
        </mxCell>
        <mxCell id="b8SGIurOboEkmsRjIlzD-2" value="arr" style="shape=parallelogram;perimeter=parallelogramPerimeter;whiteSpace=wrap;html=1;fixedSize=1;" parent="1" vertex="1">
          <mxGeometry x="345.5" y="240" width="103" height="40" as="geometry" />
        </mxCell>
        <mxCell id="b8SGIurOboEkmsRjIlzD-3" value="if len(arr) == 0" style="rhombus;whiteSpace=wrap;html=1;" parent="1" vertex="1">
          <mxGeometry x="330" y="310" width="130" height="50" as="geometry" />
        </mxCell>
        <mxCell id="b8SGIurOboEkmsRjIlzD-7" value="" style="endArrow=classic;html=1;rounded=0;exitX=1;exitY=0.5;exitDx=0;exitDy=0;entryX=0.5;entryY=0;entryDx=0;entryDy=0;" parent="1" source="b8SGIurOboEkmsRjIlzD-3" target="b8SGIurOboEkmsRjIlzD-11" edge="1">
          <mxGeometry width="50" height="50" relative="1" as="geometry">
            <mxPoint x="380" y="550" as="sourcePoint" />
            <mxPoint x="508.5" y="370" as="targetPoint" />
          </mxGeometry>
        </mxCell>
        <mxCell id="b8SGIurOboEkmsRjIlzD-8" value="true" style="text;html=1;align=center;verticalAlign=middle;whiteSpace=wrap;rounded=0;" parent="1" vertex="1">
          <mxGeometry x="448.5" y="395" width="60" height="30" as="geometry" />
        </mxCell>
        <mxCell id="b8SGIurOboEkmsRjIlzD-9" value="first_sign = -1" style="rounded=0;whiteSpace=wrap;html=1;" parent="1" vertex="1">
          <mxGeometry x="201.5" y="361" width="100" height="34" as="geometry" />
        </mxCell>
        <mxCell id="b8SGIurOboEkmsRjIlzD-11" value="return false" style="shape=parallelogram;perimeter=parallelogramPerimeter;whiteSpace=wrap;html=1;fixedSize=1;" parent="1" vertex="1">
          <mxGeometry x="405.5" y="552.5" width="110" height="40" as="geometry" />
        </mxCell>
        <mxCell id="b8SGIurOboEkmsRjIlzD-12" value="true" style="text;html=1;align=center;verticalAlign=middle;whiteSpace=wrap;rounded=0;" parent="1" vertex="1">
          <mxGeometry x="345.5" y="546.25" width="60" height="30" as="geometry" />
        </mxCell>
        <mxCell id="b8SGIurOboEkmsRjIlzD-15" value="" style="endArrow=classic;html=1;rounded=0;entryX=0.114;entryY=0.419;entryDx=0;entryDy=0;exitX=0.958;exitY=0.519;exitDx=0;exitDy=0;exitPerimeter=0;entryPerimeter=0;" parent="1" target="b8SGIurOboEkmsRjIlzD-11" edge="1">
          <mxGeometry width="50" height="50" relative="1" as="geometry">
            <mxPoint x="353.99800000000005" y="569.643" as="sourcePoint" />
            <mxPoint x="418.24" y="571.25" as="targetPoint" />
            <Array as="points">
              <mxPoint x="380" y="569" />
            </Array>
          </mxGeometry>
        </mxCell>
        <mxCell id="b8SGIurOboEkmsRjIlzD-17" value="if first_sign == -1" style="rhombus;whiteSpace=wrap;html=1;" parent="1" vertex="1">
          <mxGeometry x="155" y="606.25" width="130" height="47.5" as="geometry" />
        </mxCell>
        <mxCell id="b8SGIurOboEkmsRjIlzD-18" value="first_sign = arr[i] &amp;gt; 0" style="rounded=0;whiteSpace=wrap;html=1;" parent="1" vertex="1">
          <mxGeometry x="369" y="765" width="125" height="50" as="geometry" />
        </mxCell>
        <mxCell id="b8SGIurOboEkmsRjIlzD-20" value="if (arr[i] &amp;gt; 0) != first_sign&amp;nbsp;" style="rhombus;whiteSpace=wrap;html=1;" parent="1" vertex="1">
          <mxGeometry x="120" y="685" width="130" height="70" as="geometry" />
        </mxCell>
        <mxCell id="b8SGIurOboEkmsRjIlzD-22" value="" style="endArrow=classic;html=1;rounded=0;exitX=1;exitY=0.5;exitDx=0;exitDy=0;entryX=0.148;entryY=1.032;entryDx=0;entryDy=0;entryPerimeter=0;" parent="1" source="b8SGIurOboEkmsRjIlzD-20" edge="1" target="b8SGIurOboEkmsRjIlzD-11">
          <mxGeometry width="50" height="50" relative="1" as="geometry">
            <mxPoint x="425" y="580" as="sourcePoint" />
            <mxPoint x="400" y="610" as="targetPoint" />
            <Array as="points">
              <mxPoint x="420" y="720" />
            </Array>
          </mxGeometry>
        </mxCell>
        <mxCell id="b8SGIurOboEkmsRjIlzD-23" value="true" style="text;html=1;align=center;verticalAlign=middle;whiteSpace=wrap;rounded=0;" parent="1" vertex="1">
          <mxGeometry x="201.5" y="680" width="60" height="30" as="geometry" />
        </mxCell>
        <mxCell id="b8SGIurOboEkmsRjIlzD-27" value="i += 1" style="rounded=0;whiteSpace=wrap;html=1;" parent="1" vertex="1">
          <mxGeometry x="225" y="920" width="100" height="40" as="geometry" />
        </mxCell>
        <mxCell id="b8SGIurOboEkmsRjIlzD-28" value="if i &amp;lt; len(arr)" style="rhombus;whiteSpace=wrap;html=1;" parent="1" vertex="1">
          <mxGeometry x="209" y="460" width="85" height="40" as="geometry" />
        </mxCell>
        <mxCell id="b8SGIurOboEkmsRjIlzD-29" value="" style="endArrow=classic;html=1;rounded=0;exitX=1;exitY=0.5;exitDx=0;exitDy=0;entryX=0.394;entryY=0.053;entryDx=0;entryDy=0;entryPerimeter=0;" parent="1" source="b8SGIurOboEkmsRjIlzD-28" edge="1" target="b8SGIurOboEkmsRjIlzD-89">
          <mxGeometry width="50" height="50" relative="1" as="geometry">
            <mxPoint x="170" y="570" as="sourcePoint" />
            <mxPoint x="315" y="550" as="targetPoint" />
          </mxGeometry>
        </mxCell>
        <mxCell id="b8SGIurOboEkmsRjIlzD-30" value="true" style="text;html=1;align=center;verticalAlign=middle;whiteSpace=wrap;rounded=0;" parent="1" vertex="1">
          <mxGeometry x="294" y="490" width="60" height="30" as="geometry" />
        </mxCell>
        <mxCell id="b8SGIurOboEkmsRjIlzD-31" style="edgeStyle=orthogonalEdgeStyle;rounded=0;orthogonalLoop=1;jettySize=auto;html=1;exitX=0.5;exitY=1;exitDx=0;exitDy=0;" parent="1" source="b8SGIurOboEkmsRjIlzD-30" target="b8SGIurOboEkmsRjIlzD-30" edge="1">
          <mxGeometry relative="1" as="geometry" />
        </mxCell>
        <mxCell id="b8SGIurOboEkmsRjIlzD-32" value="return true" style="shape=parallelogram;perimeter=parallelogramPerimeter;whiteSpace=wrap;html=1;fixedSize=1;" parent="1" vertex="1">
          <mxGeometry x="35" y="546.25" width="95" height="40" as="geometry" />
        </mxCell>
        <mxCell id="b8SGIurOboEkmsRjIlzD-33" value="" style="endArrow=classic;html=1;rounded=0;exitX=0;exitY=0.5;exitDx=0;exitDy=0;entryX=0.672;entryY=-0.068;entryDx=0;entryDy=0;entryPerimeter=0;" parent="1" source="b8SGIurOboEkmsRjIlzD-28" target="b8SGIurOboEkmsRjIlzD-32" edge="1">
          <mxGeometry width="50" height="50" relative="1" as="geometry">
            <mxPoint x="170" y="570" as="sourcePoint" />
            <mxPoint x="220" y="520" as="targetPoint" />
            <Array as="points">
              <mxPoint x="100" y="480" />
            </Array>
          </mxGeometry>
        </mxCell>
        <mxCell id="b8SGIurOboEkmsRjIlzD-34" value="false" style="text;html=1;align=center;verticalAlign=middle;whiteSpace=wrap;rounded=0;" parent="1" vertex="1">
          <mxGeometry x="151.5" y="460" width="60" height="30" as="geometry" />
        </mxCell>
        <mxCell id="b8SGIurOboEkmsRjIlzD-35" value="&lt;span style=&quot;color: rgb(0, 0, 0); font-family: Helvetica; font-size: 12px; font-style: normal; font-variant-ligatures: normal; font-variant-caps: normal; font-weight: 400; letter-spacing: normal; orphans: 2; text-align: center; text-indent: 0px; text-transform: none; widows: 2; word-spacing: 0px; -webkit-text-stroke-width: 0px; white-space: normal; background-color: rgb(251, 251, 251); text-decoration-thickness: initial; text-decoration-style: initial; text-decoration-color: initial; display: inline !important; float: none;&quot;&gt;false&lt;/span&gt;" style="text;whiteSpace=wrap;html=1;" parent="1" vertex="1">
          <mxGeometry x="130" y="650" width="60" height="40" as="geometry" />
        </mxCell>
        <mxCell id="b8SGIurOboEkmsRjIlzD-36" value="&lt;span style=&quot;color: rgb(0, 0, 0); font-family: Helvetica; font-size: 12px; font-style: normal; font-variant-ligatures: normal; font-variant-caps: normal; font-weight: 400; letter-spacing: normal; orphans: 2; text-align: center; text-indent: 0px; text-transform: none; widows: 2; word-spacing: 0px; -webkit-text-stroke-width: 0px; white-space: normal; background-color: rgb(251, 251, 251); text-decoration-thickness: initial; text-decoration-style: initial; text-decoration-color: initial; display: inline !important; float: none;&quot;&gt;false&lt;/span&gt;" style="text;whiteSpace=wrap;html=1;" parent="1" vertex="1">
          <mxGeometry x="209" y="570" width="60" height="40" as="geometry" />
        </mxCell>
        <mxCell id="b8SGIurOboEkmsRjIlzD-37" value="" style="endArrow=classic;html=1;rounded=0;exitX=0.048;exitY=0.428;exitDx=0;exitDy=0;entryX=0.25;entryY=1;entryDx=0;entryDy=0;exitPerimeter=0;" parent="1" source="b8SGIurOboEkmsRjIlzD-89" edge="1">
          <mxGeometry width="50" height="50" relative="1" as="geometry">
            <mxPoint x="250" y="570" as="sourcePoint" />
            <mxPoint x="220.0000000000001" y="610.0000000000001" as="targetPoint" />
            <Array as="points">
              <mxPoint x="220" y="567" />
            </Array>
          </mxGeometry>
        </mxCell>
        <mxCell id="b8SGIurOboEkmsRjIlzD-40" value="" style="endArrow=classic;html=1;rounded=0;exitX=0;exitY=0.5;exitDx=0;exitDy=0;entryX=0.277;entryY=0.207;entryDx=0;entryDy=0;entryPerimeter=0;" parent="1" source="b8SGIurOboEkmsRjIlzD-17" target="b8SGIurOboEkmsRjIlzD-20" edge="1">
          <mxGeometry width="50" height="50" relative="1" as="geometry">
            <mxPoint x="120" y="830" as="sourcePoint" />
            <mxPoint x="170" y="780" as="targetPoint" />
          </mxGeometry>
        </mxCell>
        <mxCell id="b8SGIurOboEkmsRjIlzD-41" value="" style="endArrow=classic;html=1;rounded=0;entryX=0.096;entryY=-0.06;entryDx=0;entryDy=0;entryPerimeter=0;exitX=1;exitY=0.5;exitDx=0;exitDy=0;" parent="1" source="b8SGIurOboEkmsRjIlzD-17" target="b8SGIurOboEkmsRjIlzD-18" edge="1">
          <mxGeometry width="50" height="50" relative="1" as="geometry">
            <mxPoint x="480" y="840" as="sourcePoint" />
            <mxPoint x="530" y="790" as="targetPoint" />
            <Array as="points">
              <mxPoint x="380" y="630" />
            </Array>
          </mxGeometry>
        </mxCell>
        <mxCell id="b8SGIurOboEkmsRjIlzD-42" value="" style="endArrow=classic;html=1;rounded=0;exitX=0.5;exitY=1;exitDx=0;exitDy=0;entryX=1;entryY=0.5;entryDx=0;entryDy=0;" parent="1" source="b8SGIurOboEkmsRjIlzD-18" target="b8SGIurOboEkmsRjIlzD-27" edge="1">
          <mxGeometry width="50" height="50" relative="1" as="geometry">
            <mxPoint x="440" y="850" as="sourcePoint" />
            <mxPoint x="490" y="800" as="targetPoint" />
            <Array as="points">
              <mxPoint x="432" y="940" />
            </Array>
          </mxGeometry>
        </mxCell>
        <mxCell id="b8SGIurOboEkmsRjIlzD-43" value="" style="endArrow=classic;html=1;rounded=0;exitX=0;exitY=0.5;exitDx=0;exitDy=0;entryX=0;entryY=0.75;entryDx=0;entryDy=0;" parent="1" source="b8SGIurOboEkmsRjIlzD-20" target="b8SGIurOboEkmsRjIlzD-27" edge="1">
          <mxGeometry width="50" height="50" relative="1" as="geometry">
            <mxPoint x="100" y="730" as="sourcePoint" />
            <mxPoint x="180" y="890" as="targetPoint" />
            <Array as="points">
              <mxPoint x="124" y="951" />
            </Array>
          </mxGeometry>
        </mxCell>
        <mxCell id="b8SGIurOboEkmsRjIlzD-44" value="&lt;span style=&quot;color: rgb(0, 0, 0); font-family: Helvetica; font-size: 12px; font-style: normal; font-variant-ligatures: normal; font-variant-caps: normal; font-weight: 400; letter-spacing: normal; orphans: 2; text-align: center; text-indent: 0px; text-transform: none; widows: 2; word-spacing: 0px; -webkit-text-stroke-width: 0px; white-space: normal; background-color: rgb(251, 251, 251); text-decoration-thickness: initial; text-decoration-style: initial; text-decoration-color: initial; display: inline !important; float: none;&quot;&gt;false&lt;/span&gt;" style="text;whiteSpace=wrap;html=1;" parent="1" vertex="1">
          <mxGeometry x="95" y="820" width="60" height="40" as="geometry" />
        </mxCell>
        <mxCell id="b8SGIurOboEkmsRjIlzD-45" value="" style="endArrow=none;html=1;rounded=0;exitX=0.549;exitY=1.002;exitDx=0;exitDy=0;exitPerimeter=0;" parent="1" source="b8SGIurOboEkmsRjIlzD-27" edge="1">
          <mxGeometry width="50" height="50" relative="1" as="geometry">
            <mxPoint x="280" y="970" as="sourcePoint" />
            <mxPoint x="550" y="940" as="targetPoint" />
            <Array as="points">
              <mxPoint x="280" y="1000" />
              <mxPoint x="550" y="1000" />
            </Array>
          </mxGeometry>
        </mxCell>
        <mxCell id="b8SGIurOboEkmsRjIlzD-46" value="" style="endArrow=none;html=1;rounded=0;" parent="1" edge="1">
          <mxGeometry width="50" height="50" relative="1" as="geometry">
            <mxPoint x="550" y="940" as="sourcePoint" />
            <mxPoint x="550" y="440" as="targetPoint" />
          </mxGeometry>
        </mxCell>
        <mxCell id="b8SGIurOboEkmsRjIlzD-48" value="" style="endArrow=classic;html=1;rounded=0;" parent="1" edge="1">
          <mxGeometry width="50" height="50" relative="1" as="geometry">
            <mxPoint x="550" y="440" as="sourcePoint" />
            <mxPoint x="252" y="440" as="targetPoint" />
          </mxGeometry>
        </mxCell>
        <mxCell id="b8SGIurOboEkmsRjIlzD-50" value="" style="endArrow=classic;html=1;rounded=0;exitX=0.5;exitY=1;exitDx=0;exitDy=0;" parent="1" source="b8SGIurOboEkmsRjIlzD-9" edge="1">
          <mxGeometry width="50" height="50" relative="1" as="geometry">
            <mxPoint x="10" y="450" as="sourcePoint" />
            <mxPoint x="252" y="460" as="targetPoint" />
          </mxGeometry>
        </mxCell>
        <mxCell id="b8SGIurOboEkmsRjIlzD-51" value="" style="endArrow=classic;html=1;rounded=0;exitX=0;exitY=0.5;exitDx=0;exitDy=0;" parent="1" source="b8SGIurOboEkmsRjIlzD-3" edge="1">
          <mxGeometry width="50" height="50" relative="1" as="geometry">
            <mxPoint x="110" y="330" as="sourcePoint" />
            <mxPoint x="250" y="360" as="targetPoint" />
            <Array as="points">
              <mxPoint x="250" y="336" />
            </Array>
          </mxGeometry>
        </mxCell>
        <mxCell id="b8SGIurOboEkmsRjIlzD-52" value="false" style="text;html=1;align=center;verticalAlign=middle;whiteSpace=wrap;rounded=0;" parent="1" vertex="1">
          <mxGeometry x="245" y="308" width="60" height="30" as="geometry" />
        </mxCell>
        <mxCell id="b8SGIurOboEkmsRjIlzD-53" value="" style="endArrow=classic;html=1;rounded=0;exitX=0.5;exitY=1;exitDx=0;exitDy=0;entryX=0.5;entryY=0;entryDx=0;entryDy=0;" parent="1" source="b8SGIurOboEkmsRjIlzD-2" target="b8SGIurOboEkmsRjIlzD-3" edge="1">
          <mxGeometry width="50" height="50" relative="1" as="geometry">
            <mxPoint x="50" y="230" as="sourcePoint" />
            <mxPoint x="100" y="180" as="targetPoint" />
          </mxGeometry>
        </mxCell>
        <mxCell id="b8SGIurOboEkmsRjIlzD-54" value="" style="endArrow=classic;html=1;rounded=0;exitX=0.5;exitY=1;exitDx=0;exitDy=0;" parent="1" source="b8SGIurOboEkmsRjIlzD-1" target="b8SGIurOboEkmsRjIlzD-2" edge="1">
          <mxGeometry width="50" height="50" relative="1" as="geometry">
            <mxPoint x="230" y="190" as="sourcePoint" />
            <mxPoint x="280" y="140" as="targetPoint" />
          </mxGeometry>
        </mxCell>
        <mxCell id="b8SGIurOboEkmsRjIlzD-56" value="true" style="text;html=1;align=center;verticalAlign=middle;whiteSpace=wrap;rounded=0;" parent="1" vertex="1">
          <mxGeometry x="270" y="606.25" width="60" height="30" as="geometry" />
        </mxCell>
        <mxCell id="b8SGIurOboEkmsRjIlzD-57" value="&lt;h1 style=&quot;margin-top: 0px;&quot;&gt;Функция&amp;nbsp;check_same_sign(arr)&lt;/h1&gt;" style="text;html=1;whiteSpace=wrap;overflow=hidden;rounded=0;" parent="1" vertex="1">
          <mxGeometry x="190" y="110" width="371" height="80" as="geometry" />
        </mxCell>
        <mxCell id="b8SGIurOboEkmsRjIlzD-58" value="Начало" style="ellipse;whiteSpace=wrap;html=1;" parent="1" vertex="1">
          <mxGeometry x="1001.29" y="160" width="100" height="60" as="geometry" />
        </mxCell>
        <mxCell id="b8SGIurOboEkmsRjIlzD-59" value="found = false&lt;div&gt;i = 1&lt;/div&gt;&lt;div&gt;j = 1&lt;/div&gt;" style="rounded=0;whiteSpace=wrap;html=1;" parent="1" vertex="1">
          <mxGeometry x="991.29" y="320" width="110" height="50" as="geometry" />
        </mxCell>
        <mxCell id="b8SGIurOboEkmsRjIlzD-60" value="if&amp;nbsp;&lt;b&gt;check_same_sign&lt;/b&gt; (arrays[j])" style="rhombus;whiteSpace=wrap;html=1;" parent="1" vertex="1">
          <mxGeometry x="1056.29" y="527.5" width="245" height="89" as="geometry" />
        </mxCell>
        <mxCell id="b8SGIurOboEkmsRjIlzD-62" value="Вывод(&quot;Массив {i} состоит из элементов одного знака.&quot;)" style="shape=parallelogram;perimeter=parallelogramPerimeter;whiteSpace=wrap;html=1;fixedSize=1;" parent="1" vertex="1">
          <mxGeometry x="1261.29" y="622.5" width="210" height="60" as="geometry" />
        </mxCell>
        <mxCell id="b8SGIurOboEkmsRjIlzD-63" value="found = True" style="rounded=0;whiteSpace=wrap;html=1;" parent="1" vertex="1">
          <mxGeometry x="1301.29" y="732.5" width="120" height="40" as="geometry" />
        </mxCell>
        <mxCell id="b8SGIurOboEkmsRjIlzD-64" value="i += 1" style="rounded=0;whiteSpace=wrap;html=1;" parent="1" vertex="1">
          <mxGeometry x="996.29" y="835" width="120" height="60" as="geometry" />
        </mxCell>
        <mxCell id="b8SGIurOboEkmsRjIlzD-65" value="" style="endArrow=classic;html=1;rounded=0;exitX=0.454;exitY=0.957;exitDx=0;exitDy=0;exitPerimeter=0;" parent="1" source="b8SGIurOboEkmsRjIlzD-62" edge="1">
          <mxGeometry width="50" height="50" relative="1" as="geometry">
            <mxPoint x="1371.29" y="692.5" as="sourcePoint" />
            <mxPoint x="1356.29" y="729.5" as="targetPoint" />
          </mxGeometry>
        </mxCell>
        <mxCell id="b8SGIurOboEkmsRjIlzD-66" value="arrays" style="shape=parallelogram;perimeter=parallelogramPerimeter;whiteSpace=wrap;html=1;fixedSize=1;" parent="1" vertex="1">
          <mxGeometry x="994.79" y="250" width="103" height="40" as="geometry" />
        </mxCell>
        <mxCell id="b8SGIurOboEkmsRjIlzD-67" value="if j &amp;lt; len(arays)" style="rhombus;whiteSpace=wrap;html=1;" parent="1" vertex="1">
          <mxGeometry x="985.54" y="408" width="121.5" height="80" as="geometry" />
        </mxCell>
        <mxCell id="b8SGIurOboEkmsRjIlzD-69" value="if found == 0" style="rhombus;whiteSpace=wrap;html=1;" parent="1" vertex="1">
          <mxGeometry x="796.29" y="480" width="133" height="70" as="geometry" />
        </mxCell>
        <mxCell id="b8SGIurOboEkmsRjIlzD-70" value="Вывод(&quot;Нет массивов, состоящих из элементов одного знака.&quot;)" style="shape=parallelogram;perimeter=parallelogramPerimeter;whiteSpace=wrap;html=1;fixedSize=1;" parent="1" vertex="1">
          <mxGeometry x="766.29" y="650" width="260" height="100" as="geometry" />
        </mxCell>
        <mxCell id="b8SGIurOboEkmsRjIlzD-71" value="" style="endArrow=classic;html=1;rounded=0;exitX=0.5;exitY=1;exitDx=0;exitDy=0;" parent="1" source="b8SGIurOboEkmsRjIlzD-63" edge="1">
          <mxGeometry width="50" height="50" relative="1" as="geometry">
            <mxPoint x="1416.29" y="820" as="sourcePoint" />
            <mxPoint x="1056.29" y="800" as="targetPoint" />
            <Array as="points">
              <mxPoint x="1361.29" y="800" />
            </Array>
          </mxGeometry>
        </mxCell>
        <mxCell id="b8SGIurOboEkmsRjIlzD-72" value="" style="endArrow=classic;html=1;rounded=0;exitX=0;exitY=0.5;exitDx=0;exitDy=0;entryX=0.5;entryY=0;entryDx=0;entryDy=0;" parent="1" source="b8SGIurOboEkmsRjIlzD-60" target="b8SGIurOboEkmsRjIlzD-64" edge="1">
          <mxGeometry width="50" height="50" relative="1" as="geometry">
            <mxPoint x="926.29" y="790" as="sourcePoint" />
            <mxPoint x="976.29" y="740" as="targetPoint" />
          </mxGeometry>
        </mxCell>
        <mxCell id="b8SGIurOboEkmsRjIlzD-73" value="" style="endArrow=classic;html=1;rounded=0;entryX=0.437;entryY=0.082;entryDx=0;entryDy=0;entryPerimeter=0;exitX=1;exitY=0.5;exitDx=0;exitDy=0;" parent="1" source="b8SGIurOboEkmsRjIlzD-60" target="b8SGIurOboEkmsRjIlzD-62" edge="1">
          <mxGeometry width="50" height="50" relative="1" as="geometry">
            <mxPoint x="1316.29" y="580" as="sourcePoint" />
            <mxPoint x="1486.29" y="850" as="targetPoint" />
            <Array as="points">
              <mxPoint x="1352.29" y="573" />
            </Array>
          </mxGeometry>
        </mxCell>
        <mxCell id="b8SGIurOboEkmsRjIlzD-74" value="" style="endArrow=none;html=1;rounded=0;exitX=1;exitY=0.5;exitDx=0;exitDy=0;" parent="1" edge="1">
          <mxGeometry width="50" height="50" relative="1" as="geometry">
            <mxPoint x="1117.2900000000002" y="870.9999999999999" as="sourcePoint" />
            <mxPoint x="1147.29" y="871" as="targetPoint" />
          </mxGeometry>
        </mxCell>
        <mxCell id="b8SGIurOboEkmsRjIlzD-75" value="" style="endArrow=none;html=1;rounded=0;" parent="1" edge="1">
          <mxGeometry width="50" height="50" relative="1" as="geometry">
            <mxPoint x="1496.29" y="870" as="sourcePoint" />
            <mxPoint x="1496.29" y="390" as="targetPoint" />
          </mxGeometry>
        </mxCell>
        <mxCell id="b8SGIurOboEkmsRjIlzD-78" value="" style="endArrow=classic;html=1;rounded=0;" parent="1" edge="1">
          <mxGeometry width="50" height="50" relative="1" as="geometry">
            <mxPoint x="1496.29" y="390" as="sourcePoint" />
            <mxPoint x="1046.29" y="390" as="targetPoint" />
          </mxGeometry>
        </mxCell>
        <mxCell id="b8SGIurOboEkmsRjIlzD-79" value="" style="endArrow=classic;html=1;rounded=0;exitX=0.5;exitY=1;exitDx=0;exitDy=0;entryX=0.5;entryY=0;entryDx=0;entryDy=0;" parent="1" source="b8SGIurOboEkmsRjIlzD-59" target="b8SGIurOboEkmsRjIlzD-67" edge="1">
          <mxGeometry width="50" height="50" relative="1" as="geometry">
            <mxPoint x="1256.29" y="360" as="sourcePoint" />
            <mxPoint x="1306.29" y="310" as="targetPoint" />
          </mxGeometry>
        </mxCell>
        <mxCell id="b8SGIurOboEkmsRjIlzD-80" value="" style="endArrow=classic;html=1;rounded=0;exitX=0.5;exitY=1;exitDx=0;exitDy=0;entryX=0.5;entryY=0;entryDx=0;entryDy=0;" parent="1" source="b8SGIurOboEkmsRjIlzD-66" target="b8SGIurOboEkmsRjIlzD-59" edge="1">
          <mxGeometry width="50" height="50" relative="1" as="geometry">
            <mxPoint x="1146.29" y="290" as="sourcePoint" />
            <mxPoint x="1196.29" y="240" as="targetPoint" />
          </mxGeometry>
        </mxCell>
        <mxCell id="b8SGIurOboEkmsRjIlzD-81" value="" style="endArrow=classic;html=1;rounded=0;exitX=0.5;exitY=1;exitDx=0;exitDy=0;" parent="1" source="b8SGIurOboEkmsRjIlzD-58" edge="1">
          <mxGeometry width="50" height="50" relative="1" as="geometry">
            <mxPoint x="1106.29" y="230" as="sourcePoint" />
            <mxPoint x="1051.29" y="250" as="targetPoint" />
          </mxGeometry>
        </mxCell>
        <mxCell id="b8SGIurOboEkmsRjIlzD-82" value="" style="endArrow=classic;html=1;rounded=0;exitX=0;exitY=0.5;exitDx=0;exitDy=0;entryX=0.5;entryY=0;entryDx=0;entryDy=0;" parent="1" source="b8SGIurOboEkmsRjIlzD-67" target="b8SGIurOboEkmsRjIlzD-69" edge="1">
          <mxGeometry width="50" height="50" relative="1" as="geometry">
            <mxPoint x="816.29" y="320" as="sourcePoint" />
            <mxPoint x="866.29" y="270" as="targetPoint" />
            <Array as="points">
              <mxPoint x="862.29" y="450" />
            </Array>
          </mxGeometry>
        </mxCell>
        <mxCell id="b8SGIurOboEkmsRjIlzD-83" value="" style="endArrow=classic;html=1;rounded=0;exitX=1;exitY=0.5;exitDx=0;exitDy=0;entryX=0.808;entryY=0.02;entryDx=0;entryDy=0;entryPerimeter=0;" parent="1" source="b8SGIurOboEkmsRjIlzD-69" target="b8SGIurOboEkmsRjIlzD-70" edge="1">
          <mxGeometry width="50" height="50" relative="1" as="geometry">
            <mxPoint x="806.29" y="900" as="sourcePoint" />
            <mxPoint x="866.29" y="570" as="targetPoint" />
            <Array as="points">
              <mxPoint x="976.29" y="515" />
            </Array>
          </mxGeometry>
        </mxCell>
        <mxCell id="b8SGIurOboEkmsRjIlzD-85" value="" style="endArrow=classic;html=1;rounded=0;exitX=1;exitY=0.5;exitDx=0;exitDy=0;entryX=0.49;entryY=-0.015;entryDx=0;entryDy=0;entryPerimeter=0;" parent="1" source="b8SGIurOboEkmsRjIlzD-67" target="b8SGIurOboEkmsRjIlzD-60" edge="1">
          <mxGeometry width="50" height="50" relative="1" as="geometry">
            <mxPoint x="1106.29" y="520" as="sourcePoint" />
            <mxPoint x="1156.29" y="470" as="targetPoint" />
            <Array as="points">
              <mxPoint x="1176.29" y="448" />
            </Array>
          </mxGeometry>
        </mxCell>
        <mxCell id="b8SGIurOboEkmsRjIlzD-86" value="true" style="text;html=1;align=center;verticalAlign=middle;whiteSpace=wrap;rounded=0;" parent="1" vertex="1">
          <mxGeometry x="1097.79" y="420" width="60" height="30" as="geometry" />
        </mxCell>
        <mxCell id="b8SGIurOboEkmsRjIlzD-87" value="&lt;span style=&quot;color: rgb(0, 0, 0); font-family: Helvetica; font-size: 12px; font-style: normal; font-variant-ligatures: normal; font-variant-caps: normal; font-weight: 400; letter-spacing: normal; orphans: 2; text-align: center; text-indent: 0px; text-transform: none; widows: 2; word-spacing: 0px; -webkit-text-stroke-width: 0px; white-space: normal; background-color: rgb(251, 251, 251); text-decoration-thickness: initial; text-decoration-style: initial; text-decoration-color: initial; display: inline !important; float: none;&quot;&gt;true&lt;/span&gt;" style="text;whiteSpace=wrap;html=1;" parent="1" vertex="1">
          <mxGeometry x="1306.29" y="550" width="50" height="40" as="geometry" />
        </mxCell>
        <mxCell id="b8SGIurOboEkmsRjIlzD-88" value="" style="endArrow=none;html=1;rounded=0;" parent="1" edge="1">
          <mxGeometry width="50" height="50" relative="1" as="geometry">
            <mxPoint x="1147.29" y="871" as="sourcePoint" />
            <mxPoint x="1497.29" y="871" as="targetPoint" />
          </mxGeometry>
        </mxCell>
        <mxCell id="b8SGIurOboEkmsRjIlzD-89" value="if arr[i] == 0" style="rhombus;whiteSpace=wrap;html=1;" parent="1" vertex="1">
          <mxGeometry x="254.5" y="546.5" width="101" height="47" as="geometry" />
        </mxCell>
        <mxCell id="b8SGIurOboEkmsRjIlzD-95" value="Конец" style="ellipse;whiteSpace=wrap;html=1;" parent="1" vertex="1">
          <mxGeometry x="211.5" y="1030" width="80" height="46" as="geometry" />
        </mxCell>
        <mxCell id="b8SGIurOboEkmsRjIlzD-98" value="" style="endArrow=classic;html=1;rounded=0;exitX=0.5;exitY=1;exitDx=0;exitDy=0;entryX=0;entryY=0.5;entryDx=0;entryDy=0;" parent="1" source="b8SGIurOboEkmsRjIlzD-32" target="b8SGIurOboEkmsRjIlzD-95" edge="1">
          <mxGeometry width="50" height="50" relative="1" as="geometry">
            <mxPoint x="30" y="540" as="sourcePoint" />
            <mxPoint x="220" y="1140" as="targetPoint" />
            <Array as="points">
              <mxPoint x="80" y="1050" />
            </Array>
          </mxGeometry>
        </mxCell>
        <mxCell id="b8SGIurOboEkmsRjIlzD-99" value="" style="endArrow=classic;html=1;rounded=0;exitX=1;exitY=0.5;exitDx=0;exitDy=0;entryX=1;entryY=0.5;entryDx=0;entryDy=0;" parent="1" source="b8SGIurOboEkmsRjIlzD-11" edge="1" target="b8SGIurOboEkmsRjIlzD-95">
          <mxGeometry width="50" height="50" relative="1" as="geometry">
            <mxPoint x="590" y="740" as="sourcePoint" />
            <mxPoint x="80" y="850" as="targetPoint" />
            <Array as="points">
              <mxPoint x="581" y="574" />
              <mxPoint x="580" y="1053" />
            </Array>
          </mxGeometry>
        </mxCell>
        <mxCell id="b8SGIurOboEkmsRjIlzD-100" value="true" style="text;html=1;align=center;verticalAlign=middle;whiteSpace=wrap;rounded=0;" parent="1" vertex="1">
          <mxGeometry x="906.29" y="488" width="60" height="30" as="geometry" />
        </mxCell>
        <mxCell id="b8SGIurOboEkmsRjIlzD-101" value="" style="endArrow=classic;html=1;rounded=0;exitX=0;exitY=0.5;exitDx=0;exitDy=0;entryX=0.375;entryY=0.063;entryDx=0;entryDy=0;entryPerimeter=0;" parent="1" source="b8SGIurOboEkmsRjIlzD-69" target="b8SGIurOboEkmsRjIlzD-102" edge="1">
          <mxGeometry width="50" height="50" relative="1" as="geometry">
            <mxPoint x="656.29" y="630" as="sourcePoint" />
            <mxPoint x="696.29" y="850" as="targetPoint" />
            <Array as="points">
              <mxPoint x="746.29" y="515" />
              <mxPoint x="746.29" y="690" />
            </Array>
          </mxGeometry>
        </mxCell>
        <mxCell id="b8SGIurOboEkmsRjIlzD-102" value="Конец" style="ellipse;whiteSpace=wrap;html=1;" parent="1" vertex="1">
          <mxGeometry x="701.29" y="840" width="120" height="80" as="geometry" />
        </mxCell>
        <mxCell id="b8SGIurOboEkmsRjIlzD-103" value="" style="endArrow=classic;html=1;rounded=0;exitX=0.719;exitY=0.99;exitDx=0;exitDy=0;exitPerimeter=0;entryX=0.97;entryY=0.539;entryDx=0;entryDy=0;entryPerimeter=0;" parent="1" source="b8SGIurOboEkmsRjIlzD-70" edge="1" target="b8SGIurOboEkmsRjIlzD-102">
          <mxGeometry width="50" height="50" relative="1" as="geometry">
            <mxPoint x="886.29" y="850" as="sourcePoint" />
            <mxPoint x="736.29" y="800" as="targetPoint" />
            <Array as="points">
              <mxPoint x="953.29" y="883" />
            </Array>
          </mxGeometry>
        </mxCell>
        <mxCell id="b8SGIurOboEkmsRjIlzD-104" value="false" style="text;html=1;align=center;verticalAlign=middle;whiteSpace=wrap;rounded=0;" parent="1" vertex="1">
          <mxGeometry x="746.29" y="480" width="60" height="30" as="geometry" />
        </mxCell>
        <mxCell id="b8SGIurOboEkmsRjIlzD-105" value="false" style="text;html=1;align=center;verticalAlign=middle;whiteSpace=wrap;rounded=0;" parent="1" vertex="1">
          <mxGeometry x="1026.29" y="535" width="60" height="30" as="geometry" />
        </mxCell>
        <mxCell id="b8SGIurOboEkmsRjIlzD-106" value="false" style="text;html=1;align=center;verticalAlign=middle;whiteSpace=wrap;rounded=0;" parent="1" vertex="1">
          <mxGeometry x="926.29" y="420" width="60" height="30" as="geometry" />
        </mxCell>
        <mxCell id="jptsr1x-iaQoQO3-9C6R-1" value="&lt;h1 style=&quot;margin-top: 0px;&quot;&gt;Функция&amp;nbsp;process_arrays(arrays)&lt;/h1&gt;" style="text;html=1;whiteSpace=wrap;overflow=hidden;rounded=0;" vertex="1" parent="1">
          <mxGeometry x="906.29" y="110" width="371" height="80" as="geometry" />
        </mxCell>
      </root>
    </mxGraphModel>
  </diagram>
  <diagram id="zOUiullR11RBqgX07Tul" name="Серега">
    <mxGraphModel dx="2049" dy="1114" grid="1" gridSize="10" guides="1" tooltips="1" connect="1" arrows="1" fold="1" page="1" pageScale="1" pageWidth="827" pageHeight="1169" math="0" shadow="0">
      <root>
        <mxCell id="0" />
        <mxCell id="1" parent="0" />
        <mxCell id="2h2SsA_HNWlMC7zR9uGm-1" style="edgeStyle=orthogonalEdgeStyle;rounded=0;orthogonalLoop=1;jettySize=auto;html=1;entryX=0.5;entryY=0;entryDx=0;entryDy=0;" edge="1" parent="1" source="2h2SsA_HNWlMC7zR9uGm-2" target="2h2SsA_HNWlMC7zR9uGm-11">
          <mxGeometry relative="1" as="geometry" />
        </mxCell>
        <mxCell id="2h2SsA_HNWlMC7zR9uGm-2" value="Начало&lt;div&gt;check_same_sign&lt;/div&gt;" style="ellipse;whiteSpace=wrap;html=1;" vertex="1" parent="1">
          <mxGeometry x="385" width="120" height="40" as="geometry" />
        </mxCell>
        <mxCell id="2h2SsA_HNWlMC7zR9uGm-3" value="" style="edgeStyle=orthogonalEdgeStyle;rounded=0;orthogonalLoop=1;jettySize=auto;html=1;" edge="1" parent="1" source="2h2SsA_HNWlMC7zR9uGm-5" target="2h2SsA_HNWlMC7zR9uGm-7">
          <mxGeometry relative="1" as="geometry" />
        </mxCell>
        <mxCell id="2h2SsA_HNWlMC7zR9uGm-4" value="" style="edgeStyle=orthogonalEdgeStyle;rounded=0;orthogonalLoop=1;jettySize=auto;html=1;" edge="1" parent="1">
          <mxGeometry relative="1" as="geometry">
            <mxPoint x="368" y="240" as="sourcePoint" />
            <mxPoint x="218" y="340" as="targetPoint" />
          </mxGeometry>
        </mxCell>
        <mxCell id="2h2SsA_HNWlMC7zR9uGm-5" value="Если длинна массива равно 0" style="rhombus;whiteSpace=wrap;html=1;" vertex="1" parent="1">
          <mxGeometry x="370" y="200" width="150" height="80" as="geometry" />
        </mxCell>
        <mxCell id="2h2SsA_HNWlMC7zR9uGm-6" style="edgeStyle=orthogonalEdgeStyle;rounded=0;orthogonalLoop=1;jettySize=auto;html=1;entryX=0.5;entryY=0;entryDx=0;entryDy=0;exitX=0.5;exitY=1;exitDx=0;exitDy=0;" edge="1" parent="1" source="2h2SsA_HNWlMC7zR9uGm-7" target="2h2SsA_HNWlMC7zR9uGm-27">
          <mxGeometry relative="1" as="geometry">
            <mxPoint x="610" y="1090" as="targetPoint" />
          </mxGeometry>
        </mxCell>
        <mxCell id="2h2SsA_HNWlMC7zR9uGm-7" value="Функция вернула false" style="whiteSpace=wrap;html=1;" vertex="1" parent="1">
          <mxGeometry x="600" y="900" width="120" height="60" as="geometry" />
        </mxCell>
        <mxCell id="2h2SsA_HNWlMC7zR9uGm-8" value="" style="edgeStyle=orthogonalEdgeStyle;rounded=0;orthogonalLoop=1;jettySize=auto;html=1;" edge="1" parent="1" source="2h2SsA_HNWlMC7zR9uGm-9" target="2h2SsA_HNWlMC7zR9uGm-14">
          <mxGeometry relative="1" as="geometry" />
        </mxCell>
        <mxCell id="2h2SsA_HNWlMC7zR9uGm-9" value="for x in arr" style="rhombus;whiteSpace=wrap;html=1;" vertex="1" parent="1">
          <mxGeometry x="145" y="340" width="150" height="80" as="geometry" />
        </mxCell>
        <mxCell id="2h2SsA_HNWlMC7zR9uGm-10" style="edgeStyle=orthogonalEdgeStyle;rounded=0;orthogonalLoop=1;jettySize=auto;html=1;entryX=0.5;entryY=0;entryDx=0;entryDy=0;" edge="1" parent="1" source="2h2SsA_HNWlMC7zR9uGm-11" target="2h2SsA_HNWlMC7zR9uGm-5">
          <mxGeometry relative="1" as="geometry" />
        </mxCell>
        <mxCell id="2h2SsA_HNWlMC7zR9uGm-11" value="массив" style="shape=parallelogram;perimeter=parallelogramPerimeter;whiteSpace=wrap;html=1;fixedSize=1;" vertex="1" parent="1">
          <mxGeometry x="385" y="100" width="120" height="60" as="geometry" />
        </mxCell>
        <mxCell id="2h2SsA_HNWlMC7zR9uGm-12" style="edgeStyle=orthogonalEdgeStyle;rounded=0;orthogonalLoop=1;jettySize=auto;html=1;entryX=0.5;entryY=0;entryDx=0;entryDy=0;" edge="1" parent="1" source="2h2SsA_HNWlMC7zR9uGm-14" target="2h2SsA_HNWlMC7zR9uGm-7">
          <mxGeometry relative="1" as="geometry" />
        </mxCell>
        <mxCell id="2h2SsA_HNWlMC7zR9uGm-13" style="edgeStyle=orthogonalEdgeStyle;rounded=0;orthogonalLoop=1;jettySize=auto;html=1;" edge="1" parent="1" source="2h2SsA_HNWlMC7zR9uGm-14">
          <mxGeometry relative="1" as="geometry">
            <mxPoint x="220" y="700" as="targetPoint" />
          </mxGeometry>
        </mxCell>
        <mxCell id="2h2SsA_HNWlMC7zR9uGm-14" value="x == 0" style="rhombus;whiteSpace=wrap;html=1;" vertex="1" parent="1">
          <mxGeometry x="145" y="440" width="150" height="80" as="geometry" />
        </mxCell>
        <mxCell id="2h2SsA_HNWlMC7zR9uGm-15" value="True" style="text;html=1;align=center;verticalAlign=middle;whiteSpace=wrap;rounded=0;" vertex="1" parent="1">
          <mxGeometry x="370" y="450" width="60" height="30" as="geometry" />
        </mxCell>
        <mxCell id="2h2SsA_HNWlMC7zR9uGm-16" value="True" style="text;html=1;align=center;verticalAlign=middle;whiteSpace=wrap;rounded=0;" vertex="1" parent="1">
          <mxGeometry x="560" y="210" width="60" height="30" as="geometry" />
        </mxCell>
        <mxCell id="2h2SsA_HNWlMC7zR9uGm-17" value="False" style="text;html=1;align=center;verticalAlign=middle;whiteSpace=wrap;rounded=0;" vertex="1" parent="1">
          <mxGeometry x="270" y="210" width="60" height="30" as="geometry" />
        </mxCell>
        <mxCell id="2h2SsA_HNWlMC7zR9uGm-18" value="False" style="text;html=1;align=center;verticalAlign=middle;resizable=0;points=[];autosize=1;strokeColor=none;fillColor=none;" vertex="1" parent="1">
          <mxGeometry x="170" y="598" width="50" height="30" as="geometry" />
        </mxCell>
        <mxCell id="2h2SsA_HNWlMC7zR9uGm-19" style="edgeStyle=orthogonalEdgeStyle;rounded=0;orthogonalLoop=1;jettySize=auto;html=1;entryX=0.5;entryY=0;entryDx=0;entryDy=0;exitX=1;exitY=0.5;exitDx=0;exitDy=0;" edge="1" parent="1" source="2h2SsA_HNWlMC7zR9uGm-21" target="2h2SsA_HNWlMC7zR9uGm-23">
          <mxGeometry relative="1" as="geometry" />
        </mxCell>
        <mxCell id="2h2SsA_HNWlMC7zR9uGm-20" value="" style="edgeStyle=orthogonalEdgeStyle;rounded=0;orthogonalLoop=1;jettySize=auto;html=1;" edge="1" parent="1" source="2h2SsA_HNWlMC7zR9uGm-21" target="2h2SsA_HNWlMC7zR9uGm-26">
          <mxGeometry relative="1" as="geometry" />
        </mxCell>
        <mxCell id="2h2SsA_HNWlMC7zR9uGm-21" value="&lt;div&gt;Первый символ == None:&lt;/div&gt;" style="rhombus;whiteSpace=wrap;html=1;" vertex="1" parent="1">
          <mxGeometry x="146" y="700" width="145" height="80" as="geometry" />
        </mxCell>
        <mxCell id="2h2SsA_HNWlMC7zR9uGm-22" style="edgeStyle=orthogonalEdgeStyle;rounded=0;orthogonalLoop=1;jettySize=auto;html=1;entryX=0;entryY=0.5;entryDx=0;entryDy=0;" edge="1" parent="1" source="2h2SsA_HNWlMC7zR9uGm-23" target="2h2SsA_HNWlMC7zR9uGm-7">
          <mxGeometry relative="1" as="geometry">
            <mxPoint x="780" y="760" as="targetPoint" />
          </mxGeometry>
        </mxCell>
        <mxCell id="2h2SsA_HNWlMC7zR9uGm-23" value="(x &amp;gt; 0) != Первый символ:" style="rhombus;whiteSpace=wrap;html=1;" vertex="1" parent="1">
          <mxGeometry x="310" y="800" width="145" height="80" as="geometry" />
        </mxCell>
        <mxCell id="2h2SsA_HNWlMC7zR9uGm-24" value="False" style="text;html=1;align=center;verticalAlign=middle;resizable=0;points=[];autosize=1;strokeColor=none;fillColor=none;" vertex="1" parent="1">
          <mxGeometry x="330" y="710" width="50" height="30" as="geometry" />
        </mxCell>
        <mxCell id="2h2SsA_HNWlMC7zR9uGm-25" style="edgeStyle=orthogonalEdgeStyle;rounded=0;orthogonalLoop=1;jettySize=auto;html=1;entryX=0.5;entryY=0;entryDx=0;entryDy=0;" edge="1" parent="1" source="2h2SsA_HNWlMC7zR9uGm-26" target="2h2SsA_HNWlMC7zR9uGm-27">
          <mxGeometry relative="1" as="geometry" />
        </mxCell>
        <mxCell id="2h2SsA_HNWlMC7zR9uGm-26" value="Функция Вернула True" style="whiteSpace=wrap;html=1;" vertex="1" parent="1">
          <mxGeometry y="990" width="120" height="60" as="geometry" />
        </mxCell>
        <mxCell id="2h2SsA_HNWlMC7zR9uGm-27" value="&lt;div&gt;Конец&lt;br&gt;check_same_sign&lt;/div&gt;" style="ellipse;whiteSpace=wrap;html=1;" vertex="1" parent="1">
          <mxGeometry x="310" y="1080" width="120" height="40" as="geometry" />
        </mxCell>
        <mxCell id="2h2SsA_HNWlMC7zR9uGm-28" value="True" style="text;html=1;align=center;verticalAlign=middle;resizable=0;points=[];autosize=1;strokeColor=none;fillColor=none;" vertex="1" parent="1">
          <mxGeometry x="80" y="710" width="50" height="30" as="geometry" />
        </mxCell>
        <mxCell id="2h2SsA_HNWlMC7zR9uGm-29" value="True" style="text;html=1;align=center;verticalAlign=middle;resizable=0;points=[];autosize=1;strokeColor=none;fillColor=none;" vertex="1" parent="1">
          <mxGeometry x="455" y="810" width="50" height="30" as="geometry" />
        </mxCell>
        <mxCell id="2h2SsA_HNWlMC7zR9uGm-30" value="Дан массив" style="rounded=0;whiteSpace=wrap;html=1;" vertex="1" parent="1">
          <mxGeometry x="3180" y="770" width="120" height="60" as="geometry" />
        </mxCell>
        <mxCell id="2h2SsA_HNWlMC7zR9uGm-31" value="Начало" style="ellipse;whiteSpace=wrap;html=1;" vertex="1" parent="1">
          <mxGeometry x="2944" y="20" width="120" height="40" as="geometry" />
        </mxCell>
        <mxCell id="2h2SsA_HNWlMC7zR9uGm-32" value="Для каждого элемента массива" style="rounded=0;whiteSpace=wrap;html=1;" vertex="1" parent="1">
          <mxGeometry x="3160" y="510" width="120" height="60" as="geometry" />
        </mxCell>
        <mxCell id="2h2SsA_HNWlMC7zR9uGm-33" value="" style="edgeStyle=orthogonalEdgeStyle;rounded=0;orthogonalLoop=1;jettySize=auto;html=1;" edge="1" parent="1" source="2h2SsA_HNWlMC7zR9uGm-35" target="2h2SsA_HNWlMC7zR9uGm-38">
          <mxGeometry relative="1" as="geometry" />
        </mxCell>
        <mxCell id="2h2SsA_HNWlMC7zR9uGm-34" value="" style="edgeStyle=orthogonalEdgeStyle;rounded=0;orthogonalLoop=1;jettySize=auto;html=1;" edge="1" parent="1" source="2h2SsA_HNWlMC7zR9uGm-35">
          <mxGeometry relative="1" as="geometry">
            <mxPoint x="3228.0588235294117" y="270.0301659125189" as="targetPoint" />
          </mxGeometry>
        </mxCell>
        <mxCell id="2h2SsA_HNWlMC7zR9uGm-35" value="check_same_sign(arr)" style="rhombus;whiteSpace=wrap;html=1;" vertex="1" parent="1">
          <mxGeometry x="2926" y="90" width="156" height="80" as="geometry" />
        </mxCell>
        <mxCell id="2h2SsA_HNWlMC7zR9uGm-36" value="Вывод: &quot;Массив {i} состоит из элементов одного знака.&quot;" style="rounded=0;whiteSpace=wrap;html=1;" vertex="1" parent="1">
          <mxGeometry x="3040" y="640" width="120" height="60" as="geometry" />
        </mxCell>
        <mxCell id="2h2SsA_HNWlMC7zR9uGm-37" value="Конец" style="ellipse;whiteSpace=wrap;html=1;" vertex="1" parent="1">
          <mxGeometry x="2950" y="450" width="120" height="40" as="geometry" />
        </mxCell>
        <mxCell id="2h2SsA_HNWlMC7zR9uGm-38" value="process_arrays" style="rhombus;whiteSpace=wrap;html=1;" vertex="1" parent="1">
          <mxGeometry x="2690" y="270" width="156" height="80" as="geometry" />
        </mxCell>
        <mxCell id="2h2SsA_HNWlMC7zR9uGm-39" value="Функция вернула True" style="text;html=1;align=center;verticalAlign=middle;whiteSpace=wrap;rounded=0;" vertex="1" parent="1">
          <mxGeometry x="2800" y="90" width="60" height="30" as="geometry" />
        </mxCell>
        <mxCell id="2h2SsA_HNWlMC7zR9uGm-40" value="Функция вернула False" style="text;html=1;align=center;verticalAlign=middle;whiteSpace=wrap;rounded=0;" vertex="1" parent="1">
          <mxGeometry x="3130" y="90" width="60" height="30" as="geometry" />
        </mxCell>
        <mxCell id="2h2SsA_HNWlMC7zR9uGm-41" value="Нет массивов, состоящих из элементов одного знака." style="rounded=0;whiteSpace=wrap;html=1;" vertex="1" parent="1">
          <mxGeometry x="3169" y="270" width="120" height="60" as="geometry" />
        </mxCell>
      </root>
    </mxGraphModel>
  </diagram>
  <diagram id="rNhFh4qUCPLpdIzt0Nft" name="Страница — 3">
    <mxGraphModel dx="989" dy="538" grid="1" gridSize="10" guides="1" tooltips="1" connect="1" arrows="1" fold="1" page="1" pageScale="1" pageWidth="2339" pageHeight="3300" math="0" shadow="0">
      <root>
        <mxCell id="0" />
        <mxCell id="1" parent="0" />
        <mxCell id="_oQI6SgmB9FpHTkvuggo-1" style="edgeStyle=orthogonalEdgeStyle;rounded=0;orthogonalLoop=1;jettySize=auto;html=1;entryX=0.5;entryY=0;entryDx=0;entryDy=0;" edge="1" parent="1" source="x7JZYd5VgC3F-J8ZX4Ac-1" target="x7JZYd5VgC3F-J8ZX4Ac-2">
          <mxGeometry relative="1" as="geometry" />
        </mxCell>
        <mxCell id="x7JZYd5VgC3F-J8ZX4Ac-1" value="вх.данные (arr)" style="ellipse;whiteSpace=wrap;html=1;" vertex="1" parent="1">
          <mxGeometry x="60" y="30" width="80" height="60" as="geometry" />
        </mxCell>
        <mxCell id="_oQI6SgmB9FpHTkvuggo-7" style="edgeStyle=orthogonalEdgeStyle;rounded=0;orthogonalLoop=1;jettySize=auto;html=1;entryX=0.5;entryY=0;entryDx=0;entryDy=0;" edge="1" parent="1" source="x7JZYd5VgC3F-J8ZX4Ac-2" target="x7JZYd5VgC3F-J8ZX4Ac-4">
          <mxGeometry relative="1" as="geometry" />
        </mxCell>
        <mxCell id="x7JZYd5VgC3F-J8ZX4Ac-2" value="first_sign" style="ellipse;whiteSpace=wrap;html=1;" vertex="1" parent="1">
          <mxGeometry x="60" y="170" width="80" height="60" as="geometry" />
        </mxCell>
        <mxCell id="_oQI6SgmB9FpHTkvuggo-9" style="edgeStyle=orthogonalEdgeStyle;rounded=0;orthogonalLoop=1;jettySize=auto;html=1;" edge="1" parent="1" source="x7JZYd5VgC3F-J8ZX4Ac-4" target="_oQI6SgmB9FpHTkvuggo-2">
          <mxGeometry relative="1" as="geometry">
            <Array as="points">
              <mxPoint x="40" y="310" />
              <mxPoint x="40" y="1010" />
            </Array>
          </mxGeometry>
        </mxCell>
        <mxCell id="_oQI6SgmB9FpHTkvuggo-10" style="edgeStyle=orthogonalEdgeStyle;rounded=0;orthogonalLoop=1;jettySize=auto;html=1;entryX=0;entryY=0.5;entryDx=0;entryDy=0;" edge="1" parent="1" source="x7JZYd5VgC3F-J8ZX4Ac-4" target="_oQI6SgmB9FpHTkvuggo-5">
          <mxGeometry relative="1" as="geometry" />
        </mxCell>
        <mxCell id="x7JZYd5VgC3F-J8ZX4Ac-4" value="i&amp;lt;len(arr)" style="ellipse;whiteSpace=wrap;html=1;" vertex="1" parent="1">
          <mxGeometry x="60" y="280" width="80" height="60" as="geometry" />
        </mxCell>
        <mxCell id="_oQI6SgmB9FpHTkvuggo-2" value="Вывод" style="ellipse;whiteSpace=wrap;html=1;" vertex="1" parent="1">
          <mxGeometry x="370" y="980" width="80" height="60" as="geometry" />
        </mxCell>
        <mxCell id="_oQI6SgmB9FpHTkvuggo-26" style="edgeStyle=orthogonalEdgeStyle;rounded=0;orthogonalLoop=1;jettySize=auto;html=1;entryX=1;entryY=0.5;entryDx=0;entryDy=0;" edge="1" parent="1" source="_oQI6SgmB9FpHTkvuggo-5" target="_oQI6SgmB9FpHTkvuggo-2">
          <mxGeometry relative="1" as="geometry">
            <Array as="points">
              <mxPoint x="680" y="410" />
              <mxPoint x="680" y="1010" />
            </Array>
          </mxGeometry>
        </mxCell>
        <mxCell id="_oQI6SgmB9FpHTkvuggo-5" value="arr[i] == 0" style="ellipse;whiteSpace=wrap;html=1;" vertex="1" parent="1">
          <mxGeometry x="353" y="380" width="80" height="60" as="geometry" />
        </mxCell>
        <mxCell id="_oQI6SgmB9FpHTkvuggo-15" style="edgeStyle=orthogonalEdgeStyle;rounded=0;orthogonalLoop=1;jettySize=auto;html=1;" edge="1" parent="1" source="_oQI6SgmB9FpHTkvuggo-6" target="_oQI6SgmB9FpHTkvuggo-14">
          <mxGeometry relative="1" as="geometry" />
        </mxCell>
        <mxCell id="_oQI6SgmB9FpHTkvuggo-19" style="edgeStyle=orthogonalEdgeStyle;rounded=0;orthogonalLoop=1;jettySize=auto;html=1;" edge="1" parent="1" source="_oQI6SgmB9FpHTkvuggo-6" target="_oQI6SgmB9FpHTkvuggo-18">
          <mxGeometry relative="1" as="geometry" />
        </mxCell>
        <mxCell id="_oQI6SgmB9FpHTkvuggo-6" value="first_sign == -1" style="ellipse;whiteSpace=wrap;html=1;" vertex="1" parent="1">
          <mxGeometry x="343" y="640" width="90" height="60" as="geometry" />
        </mxCell>
        <mxCell id="_oQI6SgmB9FpHTkvuggo-13" style="edgeStyle=orthogonalEdgeStyle;rounded=0;orthogonalLoop=1;jettySize=auto;html=1;entryX=0.5;entryY=0;entryDx=0;entryDy=0;" edge="1" parent="1" source="_oQI6SgmB9FpHTkvuggo-5" target="_oQI6SgmB9FpHTkvuggo-6">
          <mxGeometry relative="1" as="geometry">
            <Array as="points">
              <mxPoint x="388" y="464" />
              <mxPoint x="388" y="464" />
            </Array>
          </mxGeometry>
        </mxCell>
        <mxCell id="_oQI6SgmB9FpHTkvuggo-20" style="edgeStyle=orthogonalEdgeStyle;rounded=0;orthogonalLoop=1;jettySize=auto;html=1;entryX=0.5;entryY=0;entryDx=0;entryDy=0;" edge="1" parent="1" source="_oQI6SgmB9FpHTkvuggo-14" target="_oQI6SgmB9FpHTkvuggo-17">
          <mxGeometry relative="1" as="geometry" />
        </mxCell>
        <mxCell id="_oQI6SgmB9FpHTkvuggo-14" value="arr [i] &amp;gt; 0 != first_sign" style="ellipse;whiteSpace=wrap;html=1;" vertex="1" parent="1">
          <mxGeometry x="157" y="710" width="140" height="60" as="geometry" />
        </mxCell>
        <mxCell id="_oQI6SgmB9FpHTkvuggo-23" style="edgeStyle=orthogonalEdgeStyle;rounded=0;orthogonalLoop=1;jettySize=auto;html=1;entryX=1;entryY=0.5;entryDx=0;entryDy=0;" edge="1" parent="1" source="_oQI6SgmB9FpHTkvuggo-17" target="x7JZYd5VgC3F-J8ZX4Ac-2">
          <mxGeometry relative="1" as="geometry">
            <mxPoint x="740" y="140" as="targetPoint" />
            <Array as="points">
              <mxPoint x="650" y="910" />
              <mxPoint x="650" y="200" />
            </Array>
          </mxGeometry>
        </mxCell>
        <mxCell id="_oQI6SgmB9FpHTkvuggo-17" value="i +=1" style="ellipse;whiteSpace=wrap;html=1;" vertex="1" parent="1">
          <mxGeometry x="343" y="880" width="80" height="60" as="geometry" />
        </mxCell>
        <mxCell id="_oQI6SgmB9FpHTkvuggo-21" style="edgeStyle=orthogonalEdgeStyle;rounded=0;orthogonalLoop=1;jettySize=auto;html=1;entryX=0.5;entryY=0;entryDx=0;entryDy=0;" edge="1" parent="1" source="_oQI6SgmB9FpHTkvuggo-18" target="_oQI6SgmB9FpHTkvuggo-17">
          <mxGeometry relative="1" as="geometry" />
        </mxCell>
        <mxCell id="_oQI6SgmB9FpHTkvuggo-18" value="first_sign = arr[i]&amp;gt;0" style="ellipse;whiteSpace=wrap;html=1;" vertex="1" parent="1">
          <mxGeometry x="473" y="710" width="140" height="60" as="geometry" />
        </mxCell>
        <mxCell id="GmTWDtXwigRf9Leh2dHl-2" style="edgeStyle=orthogonalEdgeStyle;rounded=0;orthogonalLoop=1;jettySize=auto;html=1;entryX=0.5;entryY=0;entryDx=0;entryDy=0;" edge="1" parent="1" source="dkTPZERx4GnQN_n20zsJ-1" target="dkTPZERx4GnQN_n20zsJ-2">
          <mxGeometry relative="1" as="geometry" />
        </mxCell>
        <mxCell id="dkTPZERx4GnQN_n20zsJ-1" value="вх.данные (arrays)" style="ellipse;whiteSpace=wrap;html=1;" vertex="1" parent="1">
          <mxGeometry x="1320" y="20" width="80" height="60" as="geometry" />
        </mxCell>
        <mxCell id="GmTWDtXwigRf9Leh2dHl-3" style="edgeStyle=orthogonalEdgeStyle;rounded=0;orthogonalLoop=1;jettySize=auto;html=1;" edge="1" parent="1" source="dkTPZERx4GnQN_n20zsJ-2" target="GmTWDtXwigRf9Leh2dHl-1">
          <mxGeometry relative="1" as="geometry" />
        </mxCell>
        <mxCell id="dkTPZERx4GnQN_n20zsJ-2" value="found = false&lt;div&gt;i = 1&lt;/div&gt;&lt;div&gt;j = 1&lt;/div&gt;" style="ellipse;whiteSpace=wrap;html=1;" vertex="1" parent="1">
          <mxGeometry x="1305" y="110" width="110" height="70" as="geometry" />
        </mxCell>
        <mxCell id="GmTWDtXwigRf9Leh2dHl-5" style="edgeStyle=orthogonalEdgeStyle;rounded=0;orthogonalLoop=1;jettySize=auto;html=1;entryX=0.5;entryY=0;entryDx=0;entryDy=0;" edge="1" parent="1" source="GmTWDtXwigRf9Leh2dHl-1" target="GmTWDtXwigRf9Leh2dHl-4">
          <mxGeometry relative="1" as="geometry" />
        </mxCell>
        <mxCell id="GmTWDtXwigRf9Leh2dHl-7" style="edgeStyle=orthogonalEdgeStyle;rounded=0;orthogonalLoop=1;jettySize=auto;html=1;entryX=0.5;entryY=0;entryDx=0;entryDy=0;" edge="1" parent="1" source="GmTWDtXwigRf9Leh2dHl-1" target="GmTWDtXwigRf9Leh2dHl-6">
          <mxGeometry relative="1" as="geometry" />
        </mxCell>
        <mxCell id="GmTWDtXwigRf9Leh2dHl-1" value="j&amp;lt;len(arrays)" style="ellipse;whiteSpace=wrap;html=1;" vertex="1" parent="1">
          <mxGeometry x="1312.5" y="210" width="95" height="60" as="geometry" />
        </mxCell>
        <mxCell id="GmTWDtXwigRf9Leh2dHl-4" value="found == 0" style="ellipse;whiteSpace=wrap;html=1;" vertex="1" parent="1">
          <mxGeometry x="1170" y="270" width="95" height="60" as="geometry" />
        </mxCell>
        <mxCell id="GmTWDtXwigRf9Leh2dHl-6" value="check_same_sign(arrays[j])" style="ellipse;whiteSpace=wrap;html=1;" vertex="1" parent="1">
          <mxGeometry x="1490" y="270" width="190" height="60" as="geometry" />
        </mxCell>
      </root>
    </mxGraphModel>
  </diagram>
</mxfile>
